# xmcd
#
# Track frame offsets: 
#        150
#        34507
#        49023
#        65594
#        102928
#        119553
#        133302
#        159866
#        178248
#        195527
#        209751
#        237532
#        254419
#        269917
#        302980
#
# Disc length: 4430 seconds
#
# Revision: 0
# Processed by: cddbd v1.5.2PL0 Copyright (c) Steve Scherf et al.
# Submitted via: ExactAudioCopy v1.0b3
#
DISCID=ee114c0f
DTITLE=Various Artist - Trance Tronic Vol. 1 - CD 3
DYEAR=1900
DGENRE=
TTITLE0=666 and DJ Bonito - Atencion (DJ Bonito XXL Mix)
TTITLE1=DJ Bomba - Crazy Pipe (Radio Edit)
TTITLE2=Warp Brothers Feat. Red Monkey - Blade (200° Edit)
TTITLE3=Mainbrain and Somville - Euphoria (Dave Joy Vs. Emphasysts Remix
TTITLE3=)
TTITLE4=Hatmaker - On The Roxxx (Radio Edit)
TTITLE5=Deepforces - Harder (Megara Vs. DJ Lee Radio Edit)
TTITLE6=Ray Knox - Fiesta (Jens O. Rmx)
TTITLE7=Blue Thunder - Disconnected (Radio Mix)
TTITLE8=Pain and K. Laurent - This Way (Radio Edit)
TTITLE9=Snipe Brothers - Son Stal Realnonstju (Radio Edit)
TTITLE10=Drumdummies Vs. DJ Uto - L(R)ock 'n L(R)oll (Original Mix)
TTITLE11=E-Love - Here Comes The Rain Again (Sinatic Radio Mix)
TTITLE12=Gavin and Nox - In Your Eyes (Alex M. Radio Mix)
TTITLE13=Ayu - Unite (Alt F4 Rmx)
TTITLE14=Tiesto - Ur (Leama and Moor Rmx)
EXTD=
EXTT0=
EXTT1=
EXTT2=
EXTT3=
EXTT4=
EXTT5=
EXTT6=
EXTT7=
EXTT8=
EXTT9=
EXTT10=
EXTT11=
EXTT12=
EXTT13=
EXTT14=
PLAYORDER=
